<?xml version="1.0" standalone="no"?>
<!DOCTYPE svg PUBLIC "-//W3C//DTD SVG 20010904//EN"
 "http://www.w3.org/TR/2001/REC-SVG-20010904/DTD/svg10.dtd">
<svg version="1.0" xmlns="http://www.w3.org/2000/svg"
 width="1280.000000pt" height="1280.000000pt" viewBox="0 0 1280.000000 1280.000000"
 preserveAspectRatio="xMidYMid meet">
<metadata>
Created by potrace 1.15, written by Peter Selinger 2001-2017
</metadata>
<g transform="translate(0.000000,1280.000000) scale(0.100000,-0.100000)"
fill="#000000" stroke="none">
<path d="M6343 11110 c-46 -28 -58 -58 -109 -267 -56 -235 -86 -336 -131 -438
-103 -234 -98 -442 14 -663 34 -67 44 -95 36 -103 -6 -6 -9 -26 -6 -44 4 -22
-4 -53 -26 -103 -18 -40 -46 -128 -63 -196 l-32 -124 -80 -7 c-291 -24 -589
-93 -894 -207 -178 -66 -283 -113 -473 -209 -198 -101 -308 -173 -591 -386
-344 -260 -502 -362 -678 -435 -129 -55 -127 -54 -135 -16 -17 75 -72 146
-145 184 -25 13 -56 19 -110 19 -85 0 -133 -20 -186 -77 -54 -57 -69 -95 -69
-178 0 -88 21 -136 84 -193 l40 -36 -46 -93 c-55 -113 -473 -976 -553 -1143
-32 -66 -147 -304 -257 -530 -109 -225 -318 -656 -463 -957 l-265 -548 -33 0
-33 0 42 -62 c63 -95 258 -283 369 -357 256 -169 586 -286 960 -338 178 -25
633 -24 815 0 489 67 885 237 1156 494 83 80 209 232 209 254 0 5 -12 9 -28 9
-27 0 -40 27 -447 867 -231 477 -585 1207 -786 1623 l-365 755 95 16 c332 56
617 188 1036 479 77 53 189 130 249 170 305 204 735 377 1143 459 124 25 319
51 383 51 14 0 18 -24 28 -172 22 -317 82 -600 189 -887 30 -80 33 -97 23
-116 -14 -26 -7 -45 17 -45 13 0 14 -20 8 -167 -4 -93 -9 -175 -10 -183 -1 -8
-6 -89 -11 -180 -4 -91 -8 -167 -9 -170 -1 -3 -5 -84 -10 -180 -5 -96 -9 -177
-10 -180 -1 -3 -5 -84 -10 -180 -5 -96 -9 -177 -10 -180 -1 -3 -5 -88 -9 -190
-5 -102 -10 -192 -11 -200 -1 -8 -6 -98 -9 -200 -4 -102 -9 -201 -11 -220 -10
-88 -27 -781 -23 -920 4 -118 10 -170 26 -218 24 -73 20 -93 -25 -147 -65 -76
-79 -198 -35 -298 18 -41 19 -46 4 -61 -14 -14 -14 -17 2 -34 16 -18 14 -34
-40 -303 -67 -337 -73 -422 -50 -698 9 -106 16 -222 16 -257 l0 -64 -332 0
c-329 0 -334 0 -384 -24 -66 -31 -115 -75 -145 -131 l-24 -45 -128 0 c-185 0
-262 -31 -346 -141 -28 -37 -42 -46 -87 -56 -79 -18 -128 -47 -171 -100 -80
-99 -94 -110 -189 -138 -49 -15 -105 -36 -125 -46 -43 -22 -89 -73 -89 -100 0
-19 39 -19 2420 -19 2381 0 2420 0 2420 19 0 52 -82 107 -215 146 -90 26 -109
39 -169 114 -61 77 -126 116 -207 127 -40 5 -49 11 -59 34 -16 40 -77 95 -140
127 -52 26 -64 28 -203 31 l-148 4 -10 26 c-18 46 -75 107 -130 137 l-54 30
-342 3 -343 3 0 74 c0 40 7 158 16 262 21 252 16 342 -39 618 -68 342 -68 343
-54 366 9 14 9 24 1 36 -8 13 -6 27 7 59 45 100 31 223 -34 299 -45 54 -49 74
-25 147 29 89 33 254 19 701 -7 205 -14 390 -16 412 -2 22 -7 119 -10 215 -3
96 -8 191 -10 210 -2 19 -7 109 -10 200 -4 91 -8 176 -10 190 -2 14 -6 95 -10
180 -4 85 -8 166 -10 180 -2 14 -6 95 -10 180 -4 85 -8 166 -10 180 -2 14 -7
95 -10 180 -4 85 -9 162 -10 170 -1 8 -6 93 -10 187 l-7 173 23 19 c22 18 23
20 7 38 -11 12 -14 23 -8 34 19 34 81 217 115 337 63 229 96 436 110 685 6
103 9 117 25 117 43 0 232 -22 310 -36 307 -55 679 -181 964 -327 66 -33 194
-111 285 -172 91 -61 236 -159 321 -216 365 -246 665 -375 968 -414 28 -4 52
-10 52 -14 0 -4 -266 -556 -590 -1226 -325 -671 -677 -1399 -783 -1617 l-192
-398 -33 0 -33 0 42 -63 c24 -34 93 -112 154 -173 277 -278 668 -450 1180
-521 181 -24 636 -24 815 1 508 70 899 244 1175 520 61 61 130 139 154 173
l42 63 -33 0 -34 0 -211 438 c-117 240 -473 977 -792 1636 l-581 1199 45 39
c107 94 112 259 11 366 -53 57 -101 77 -186 77 -57 0 -84 -5 -115 -22 -70 -37
-124 -107 -140 -181 -8 -38 -4 -39 -144 19 -151 63 -330 177 -643 411 -327
245 -407 298 -623 409 -460 238 -915 376 -1367 415 l-77 6 -16 72 c-21 94 -61
220 -87 269 -13 26 -18 52 -16 76 3 20 0 44 -6 54 -9 14 -6 26 12 55 41 66 74
145 94 227 17 65 20 100 16 190 -6 116 -17 157 -91 335 -20 47 -64 198 -97
335 -34 138 -69 263 -77 278 -17 34 -68 67 -103 67 -14 0 -39 -9 -57 -20z
m-3385 -3212 c7 -7 12 -24 12 -38 0 -14 -5 -31 -12 -38 -7 -7 -24 -12 -38 -12
-14 0 -31 5 -38 12 -7 7 -12 24 -12 38 0 14 5 31 12 38 7 7 24 12 38 12 14 0
31 -5 38 -12z m6960 0 c7 -7 12 -24 12 -38 0 -14 -5 -31 -12 -38 -7 -7 -24
-12 -38 -12 -14 0 -31 5 -38 12 -7 7 -12 24 -12 38 0 14 5 31 12 38 7 7 24 12
38 12 14 0 31 -5 38 -12z m-7044 -294 c15 -6 16 -158 16 -1625 l0 -1619 -804
0 -805 0 73 153 c41 83 154 319 253 522 99 204 419 866 713 1473 293 606 534
1102 536 1102 1 0 9 -3 18 -6z m7218 -296 c229 -476 1395 -2882 1412 -2917
l17 -31 -806 0 -805 0 0 1618 c0 890 3 1622 7 1625 3 4 12 7 18 7 6 0 77 -136
157 -302z m-6942 -38 c87 -179 395 -815 685 -1415 290 -599 572 -1181 626
-1292 l98 -203 -805 0 -804 0 0 1621 0 1620 22 -3 c18 -2 50 -62 178 -328z
m6693 -1287 l-3 -1618 -799 -3 -800 -2 68 142 c38 79 109 226 158 328 50 102
361 745 693 1430 716 1479 646 1340 668 1340 16 0 17 -89 15 -1617z"/>
</g>
</svg>
